<?xml version="1.0" encoding="UTF-8"?>
<!DOCTYPE svg PUBLIC "-//W3C//DTD SVG 1.1//EN" "http://www.w3.org/Graphics/SVG/1.1/DTD/svg11.dtd">
<!-- Creator: CorelDRAW 2018 (64-Bit) -->
<svg xmlns="http://www.w3.org/2000/svg" xml:space="preserve" width="43.3493mm" height="43.3493mm" version="1.1" shape-rendering="geometricPrecision" text-rendering="geometricPrecision" image-rendering="optimizeQuality" fill-rule="evenodd" clip-rule="evenodd"
viewBox="0 0 1367.8 1367.8"
 xmlns:xlink="http://www.w3.org/1999/xlink">
 <g id="Layer_x0020_1">
  <metadata id="CorelCorpID_0Corel-Layer"/>
  <rect fill="#474543" x="-0" width="1367.8" height="1367.8"/>
  <path fill="#EBE7E4" fill-rule="nonzero" d="M244.68 903.67c23.29,0 44.66,5.73 64.13,17.18 19.47,11.45 34.94,26.91 46.39,46.38 11.45,19.47 17.18,40.66 17.18,63.57l0 190.12c0,6.49 -2.39,12.12 -7.16,16.89 -4.77,4.77 -10.4,7.16 -16.9,7.16 -6.49,0 -12.12,-2.39 -16.89,-7.16 -4.77,-4.77 -7.16,-10.4 -7.16,-16.89l0 -80.17 -158.62 0 0 80.17c0,6.49 -2.38,12.12 -7.16,16.89 -4.77,4.77 -10.4,7.16 -16.89,7.16 -6.49,0 -12.12,-2.39 -16.89,-7.16 -4.77,-4.77 -7.16,-10.4 -7.16,-16.89l0 -190.12c0,-22.91 5.73,-44.1 17.18,-63.57 11.45,-19.47 26.91,-34.93 46.39,-46.38 19.47,-11.45 40.66,-17.18 63.56,-17.18zm79.6 188.97l0 -61.84c0,-14.13 -3.63,-27.29 -10.88,-39.51 -7.25,-12.22 -16.99,-21.86 -29.21,-28.92 -12.22,-7.06 -25.39,-10.59 -39.51,-10.59 -14.13,0 -27.3,3.63 -39.51,10.88 -12.22,7.25 -21.85,16.9 -28.92,28.92 -7.06,12.02 -10.59,25.1 -10.59,39.23l0 61.84 158.62 0zm140.3 154.04c-8.4,0 -15.56,-3.05 -21.47,-9.16 -5.92,-6.11 -8.88,-13.17 -8.88,-21.19 0,-8.4 2.95,-15.56 8.88,-21.47 5.92,-5.92 13.08,-8.88 21.47,-8.88 8.02,0 15.08,2.96 21.18,8.88 6.11,5.92 9.16,13.08 9.16,21.47 0,8.02 -3.05,15.08 -9.16,21.19 -6.11,6.11 -13.17,9.16 -21.18,9.16zm268.56 -340.72c6.5,0 12.13,2.39 16.9,7.16 4.77,4.77 7.16,10.4 7.16,16.9 0,6.49 -2.39,12.12 -7.16,16.89 -4.77,4.77 -10.4,7.16 -16.9,7.16l-79.6 0 0 266.86c0,6.49 -2.38,12.12 -7.15,16.89 -4.78,4.77 -10.41,7.16 -16.9,7.16 -6.49,0 -12.12,-2.39 -16.89,-7.16 -4.77,-4.77 -7.16,-10.4 -7.16,-16.89l0 -266.86 -79.59 0c-6.49,0 -12.12,-2.39 -16.89,-7.16 -4.77,-4.77 -7.16,-10.4 -7.16,-16.89 0,-6.88 2.39,-12.61 7.16,-17.18 4.77,-4.59 10.4,-6.88 16.89,-6.88l207.29 0zm61.28 340.72c-8.4,0 -15.56,-3.05 -21.47,-9.16 -5.92,-6.11 -8.88,-13.17 -8.88,-21.19 0,-8.4 2.95,-15.56 8.88,-21.47 5.92,-5.92 13.08,-8.88 21.47,-8.88 8.02,0 15.08,2.96 21.18,8.88 6.11,5.92 9.16,13.08 9.16,21.47 0,8.02 -3.05,15.08 -9.16,21.19 -6.11,6.11 -13.17,9.16 -21.18,9.16zm304.07 -178.09c13.75,8.41 24.63,19.66 32.64,33.79 8.02,14.13 12.02,29.58 12.02,46.38 0,17.57 -4.3,33.69 -12.88,48.39 -8.59,14.7 -20.23,26.35 -34.94,34.94 -14.7,8.59 -30.63,12.88 -47.82,12.88l-136.86 0c-6.49,0 -12.12,-2.39 -16.89,-7.16 -4.77,-4.77 -7.16,-10.4 -7.16,-16.89l0 -218.18c0,-17.56 4.49,-33.78 13.46,-48.68 8.97,-14.88 20.99,-26.63 36.07,-35.21 15.08,-8.59 31.4,-12.89 48.96,-12.89l41.8 0c17.56,0 33.79,4.39 48.68,13.18 14.89,8.77 26.72,20.61 35.51,35.5 8.78,14.89 13.17,31.11 13.17,48.67 0,12.6 -2.29,24.53 -6.88,35.79 -4.58,11.26 -10.88,21.09 -18.9,29.48zm-113.95 -114.52c-13.74,0 -25.48,4.87 -35.21,14.6 -9.73,9.73 -14.61,21.29 -14.61,34.65l0 49.82 92.19 0c13.36,0 24.91,-4.87 34.65,-14.61 9.73,-9.73 14.6,-21.47 14.6,-35.21 0,-13.36 -4.86,-24.91 -14.6,-34.65 -9.74,-9.73 -21.29,-14.6 -34.65,-14.6l-42.37 0zm62.99 243.37c13.36,0 24.63,-4.68 33.79,-14.03 9.16,-9.36 13.74,-20.9 13.74,-34.65 0,-13.36 -4.58,-24.62 -13.74,-33.78 -9.16,-9.16 -20.43,-13.74 -33.79,-13.74l-112.81 0 0 96.2 112.81 0zm172.37 49.25c-8.4,0 -15.56,-3.05 -21.47,-9.16 -5.93,-6.11 -8.88,-13.17 -8.88,-21.19 0,-8.4 2.95,-15.56 8.88,-21.47 5.91,-5.92 13.08,-8.88 21.47,-8.88 8.02,0 15.08,2.96 21.19,8.88 6.11,5.92 9.16,13.08 9.16,21.47 0,8.02 -3.05,15.08 -9.16,21.19 -6.11,6.11 -13.17,9.16 -21.19,9.16z"/>
  <g id="_1679572963232">
   <polygon fill="#FD5BFC" points="538.14,111.69 117.89,531.94 117.89,111.69 "/>
   <polygon fill="#73BF94" points="117.89,531.94 538.14,111.69 965.69,111.69 402.11,675.27 117.89,675.27 "/>
   <polygon fill="#05FFF3" points="402.11,675.27 965.69,111.69 1249.91,111.69 1249.91,255.02 829.66,675.27 "/>
   <polygon fill="#FB8D50" points="829.66,675.27 1249.91,255.02 1249.91,675.27 "/>
  </g>
  <polygon fill="none" stroke="#FAF9F2" stroke-width="8.01" stroke-miterlimit="2.61313" points="117.89,111.69 1249.91,111.69 1249.91,675.27 117.89,675.27 "/>
 </g>
</svg>
